<svg xmlns="http://www.w3.org/2000/svg" xmlns:xlink="http://www.w3.org/1999/xlink" width="88" height="87" viewBox="0 0 88 87"><defs><path id="gi4za" d="M220 2526.6h45v44.56h-45z"/><path id="gi4ze" d="M248.61 2554.98a19.77 19.77 0 0 1-3.96-6.75c-2.27-7.2 4.73-12.75 11.22-11.9.87 1.26 2.12 2.47 3.22 2.79l.22.89c.5 3.24 1.68 7.59 3.38 6.81a5.3 5.3 0 0 0 1.83-1.37c.8-.92.39-2.36.3-3.44-.13-1.57-.22-3.16-.52-4.71-.63-3.3-3.86-7.08-6.2-9.38a4.43 4.43 0 0 0-1.58-1.1c-2.2-.77-4.88.7-6.99 1.27-4 1.06-8.57 2.97-12.3 4.42-2.86 1.1-3.6 4.57-5.31 6.99-2.02 2.86-4.22 5.7-6.88 8-1.1.96-2.27 1.86-3.46 2.75-2.34 5.3-1.9 10.52.16 14.54 1.53 1.18 3.1 1.94 5.4 1.7.43-.05.87-.14 1.3-.24a21.95 21.95 0 0 1 5.65-3.77l.6.35c3.92 2.33 8.03.96 12.45 2.23 3.75 1.07 9.12 3.87 12.75 5.32 3.94 1.58 5.98.96 4.1-3.7-2.62-6.5-10.74-7.18-15.38-11.7"/><path id="gi4zf" d="M256.46 2537.09a6.1 6.1 0 0 0 2.63 2.02l.22.9c.5 3.23 1.68 7.58 3.38 6.8.3-.13.57-.3.82-.47l-.02-.09c.12-5.26-2.95-8.37-7.03-9.16"/><path id="gi4zg" d="M242.54 2531c3.5-.73 4.97-.71 7.74-1.43 2.24-.57 3.38-1.24 5.3-1.66 1-.22 1.86-.07 2.38.81 1.83 3.08 4.68 5.44 6.27 8.3-.75-3.22-3.86-6.87-6.13-9.1a4.42 4.42 0 0 0-1.58-1.1c-2.2-.77-4.89.7-7 1.27-2.8.75-9.14 3.18-12.04 4.32.6-.08 4.45-1.29 5.06-1.41"/><path id="gi4zh" d="M248.12 2538.32c-2.44 1.05-3.76 3.18-4.93 5.54-1.94 3.92-.75 6.79 2.6 9.08 1.24.85 2.69 2.87 4.42 3.36-.56-.4-1.1-.84-1.6-1.32a19.76 19.76 0 0 1-3.96-6.76c-1.31-4.15.48-7.76 3.47-9.9"/><path id="gi4zi" d="M227.15 2566.49c.43-.05.87-.14 1.32-.25 1.5-1.33 3.1-2.5 4.88-3.4-2.82-2.22-7.18.35-10.41 2.77a6.64 6.64 0 0 0 4.2.88"/><path id="gi4zj" d="M262.81 2570.9a.38.38 0 0 1-.36-.23c-.92-2.1-2.86-2.83-3.6-2.52-.1.04-.37.14-.17.69.08.2-.02.41-.22.49a.38.38 0 0 1-.49-.23c-.34-.91.09-1.45.6-1.66 1.14-.45 3.5.45 4.57 2.93a.38.38 0 0 1-.33.53"/><path id="gi4zk" d="M251.8 2566.17a.38.38 0 0 1-.3-.12.38.38 0 0 1 .02-.53c.95-.93 2.61-1.72 2.68-1.75.2-.1.42-.01.5.18.1.18.02.41-.17.5-.02 0-1.62.78-2.49 1.61a.38.38 0 0 1-.24.1"/><path id="gi4zl" d="M246.44 2538.83c-.94.06-2.01 0-2.96-.23a.38.38 0 0 1 .17-.74c1.99.47 3.94.11 4.45-.08v-.01c.1-.19.33-.25.52-.15.16.09.26.33.2.51-.14.36-1.14.63-2.38.7"/><path id="gi4zm" d="M255.89 2536.7a.38.38 0 0 1-.39-.27c-.02-.07-.49-1.7.12-3.18a.38.38 0 1 1 .7.28c-.5 1.25-.1 2.66-.09 2.68a.38.38 0 0 1-.34.49"/><path id="gi4zb" d="M264.32 2526.66h43.29v44.54h-43.29z"/><path id="gi4zo" d="M302.52 2568.06c3.08-.18 4.33-2.57 4.79-5.68.21-1.47.27-2.96.3-4.44-.4-3.03-1.36-6.06-1.92-9.1-.49-.38-.96-.77-1.42-1.18-2.65-2.32-4.84-5.15-6.86-8.03-1.7-2.42-2.42-5.89-5.28-7-3.73-1.46-8.3-3.39-12.3-4.46-2.1-.57-4.77-2.06-6.98-1.3-.6.22-1.12.65-1.58 1.1-2.34 2.3-5.58 6.07-6.23 9.36-.3 1.55-.4 3.14-.53 4.71-.1 1.08-.5 2.52.29 3.44a5.32 5.32 0 0 0 1.82 1.38c1.7.78 2.89-3.57 3.4-6.8l.22-.9c1.1-.3 2.36-1.52 3.23-2.78 6.5-.83 13.47 4.76 11.19 11.94a19.81 19.81 0 0 1-4 6.75c-4.64 4.5-12.77 5.15-15.4 11.64-1.9 4.66.14 5.28 4.09 3.72 3.63-1.44 9-4.22 12.76-5.29 4.43-1.25 8.53.14 12.45-2.18.2-.13.4-.24.6-.35a24.34 24.34 0 0 1 7.36 5.45"/><path id="gi4zp" d="M272.88 2537.15a6.1 6.1 0 0 1-2.64 2.01l-.21.9c-.52 3.23-1.71 7.58-3.4 6.8a5.3 5.3 0 0 1-.83-.48l.02-.1c-.1-5.26 2.98-8.35 7.06-9.13"/><path id="gi4zq" d="M286.83 2531.1c-3.5-.74-4.98-.73-7.75-1.45-2.23-.59-3.37-1.26-5.28-1.68-1-.23-1.87-.08-2.4.8-1.83 3.08-4.69 5.42-6.29 8.29.76-3.23 3.89-6.86 6.16-9.09.46-.45.97-.88 1.59-1.1 2.2-.76 4.88.73 6.98 1.3 2.82.75 9.14 3.21 12.04 4.35-.6-.07-4.45-1.3-5.05-1.42"/><path id="gi4zr" d="M281.22 2538.41c2.44 1.06 4.86 2.64 6.02 5 1.92 3.93-.37 7.99-3.73 10.26-1.24.85-2.84 1.4-4.44 2.71.57-.4 1.1-.83 1.6-1.31a19.79 19.79 0 0 0 4-6.74c1.31-4.16-.47-7.77-3.45-9.92"/><path id="gi4zs" d="M302.52 2568.06c1.81-.1 3-.97 3.76-2.31-3.22-2.43-7.55-4.98-10.37-2.78a25.35 25.35 0 0 1 6.6 5.09"/><path id="gi4zt" d="M266.42 2570.94c.15 0 .3-.08.37-.23.92-2.09 2.86-2.82 3.6-2.51.1.04.37.15.17.69a.38.38 0 1 0 .7.26c.35-.9-.07-1.45-.58-1.65-1.14-.46-3.5.44-4.59 2.9a.38.38 0 0 0 .33.54"/><path id="gi4zu" d="M277.45 2566.25c.1 0 .21-.04.3-.12a.38.38 0 0 0-.02-.53 12.05 12.05 0 0 0-2.68-1.76.38.38 0 0 0-.33.68c.02 0 1.62.78 2.49 1.62.06.07.15.1.24.1"/><path id="gi4zv" d="M282.9 2538.92c.93.06 2 0 2.95-.22.2-.05.33-.25.28-.46a.38.38 0 0 0-.45-.28c-1.99.46-3.93.1-4.44-.1v-.01a.38.38 0 0 0-.52-.15c-.17.09-.27.33-.2.5.14.37 1.13.64 2.37.72"/><path id="gi4zw" d="M273.45 2536.76c.17 0 .33-.1.39-.27.02-.07.5-1.7-.1-3.18a.38.38 0 1 0-.71.28 4.6 4.6 0 0 1 .08 2.68.38.38 0 0 0 .34.49"/><path id="gi4zx" d="M249.96 2519.18c-1.83-3.01-3.6-6.7-6.47-8.86-.77-.57-1.6.5-1.22 1.22 1.64 3.09 4.72 5.54 6.93 8.22.35.42 1.04-.12.76-.58"/><path id="gi4zy" d="M277.85 2519.18c1.82-3.01 3.6-6.7 6.46-8.86.77-.57 1.6.5 1.23 1.22-1.65 3.09-4.72 5.54-6.94 8.22-.35.42-1.03-.12-.75-.58"/><path id="gi4zc" d="M262.55 2507.1h2.7v16.57h-2.7z"/><path id="gi4zA" d="M265.19 2508.42c-.1-1.65-2.18-1.82-2.4-.13-.62 4.68.08 10.42.9 15.04.09.5.78.43.81-.07.35-4.8.97-10.06.69-14.84"/><path id="gi4zB" d="M277.85 2581.92c1.82 3 3.6 6.69 6.46 8.85.77.57 1.6-.5 1.23-1.22-1.65-3.09-4.72-5.54-6.94-8.22-.35-.42-1.03.13-.75.59"/><path id="gi4zC" d="M249.96 2581.92c-1.83 3-3.6 6.69-6.47 8.85-.77.57-1.6-.5-1.22-1.22 1.64-3.09 4.72-5.54 6.93-8.22.35-.42 1.04.13.76.59"/><path id="gi4zD" d="M262.62 2592.67c.1 1.65 2.18 1.82 2.4.13.62-4.68-.08-10.42-.9-15.04-.09-.5-.78-.42-.82.07-.34 4.8-.96 10.06-.68 14.84"/><clipPath id="gi4zd"><use xlink:href="#gi4za"/></clipPath><clipPath id="gi4zn"><use xlink:href="#gi4zb"/></clipPath><clipPath id="gi4zz"><use xlink:href="#gi4zc"/></clipPath></defs><g><g transform="translate(-220 -2507)"><g><g/><g clip-path="url(#gi4zd)"><use fill="#d8d8ff" xlink:href="#gi4ze"/></g></g><g><use fill="#b4b4ff" xlink:href="#gi4zf"/></g><g><use fill="#b4b4ff" xlink:href="#gi4zg"/></g><g><use fill="#b4b4ff" xlink:href="#gi4zh"/></g><g><use fill="#b4b4ff" xlink:href="#gi4zi"/></g><g><use fill="#b4b4ff" xlink:href="#gi4zj"/></g><g><use fill="#b4b4ff" xlink:href="#gi4zk"/></g><g><use fill="#b4b4ff" xlink:href="#gi4zl"/></g><g><use fill="#b4b4ff" xlink:href="#gi4zm"/></g><g><g/><g clip-path="url(#gi4zn)"><use fill="#b7ecff" xlink:href="#gi4zo"/></g></g><g><use fill="#71cefc" xlink:href="#gi4zp"/></g><g><use fill="#71cefc" xlink:href="#gi4zq"/></g><g><use fill="#71cefc" xlink:href="#gi4zr"/></g><g><use fill="#71cefc" xlink:href="#gi4zs"/></g><g><use fill="#71cefc" xlink:href="#gi4zt"/></g><g><use fill="#71cefc" xlink:href="#gi4zu"/></g><g><use fill="#71cefc" xlink:href="#gi4zv"/></g><g><use fill="#71cefc" xlink:href="#gi4zw"/></g><g><use fill="#b7ecff" xlink:href="#gi4zx"/></g><g><use fill="#b7ecff" xlink:href="#gi4zy"/></g><g><g/><g clip-path="url(#gi4zz)"><use fill="#b7ecff" xlink:href="#gi4zA"/></g></g><g><use fill="#b7ecff" xlink:href="#gi4zB"/></g><g><use fill="#b7ecff" xlink:href="#gi4zC"/></g><g><use fill="#b7ecff" xlink:href="#gi4zD"/></g></g></g></svg>