<svg width="121" height="120" viewBox="0 0 121 120" fill="none" xmlns="http://www.w3.org/2000/svg">
<g clip-path="url(#clip0)">
<path d="M36.3269 33.24C36.3269 14.4 39.6936 13.08 43.7818 7.68C47.87 2.28 62.2989 0.48 74.5634 0.72C86.8279 0.96 98.4912 8.28 102.219 16.2C105.946 24.12 104.624 41.52 103.902 47.64C103.181 53.76 87.5494 58.44 69.874 59.28C52.1986 60.12 36.3269 53.16 36.3269 33.24Z" fill="#8080EF"/>
<path d="M36.3269 33.24C36.3269 14.4 39.6936 13.08 43.7818 7.68C47.87 2.28 62.2989 0.48 74.5634 0.72C86.8279 0.96 98.4912 8.28 102.219 16.2C105.946 24.12 104.624 41.52 103.902 47.64C103.181 53.76 87.5494 58.44 69.874 59.28C52.1986 60.12 36.3269 53.16 36.3269 33.24Z" fill="#8080EF"/>
<path d="M91.9982 49.56C88.7517 42.6 82.0183 38.04 74.6836 36C67.3489 33.96 58.4511 33.96 50.2748 34.8C45.8259 35.28 41.1365 36.48 36.5674 37.08C38.4912 54 53.2808 59.88 69.874 59.28C78.0355 58.9872 86.1221 57.6153 93.9221 55.2C93.4625 53.2631 92.8183 51.3744 91.9982 49.56Z" fill="#5F5FF4"/>
<path d="M91.1565 30.6C91.1565 30.6 86.1064 18.48 73.0002 17.52C59.894 16.56 53.5213 24.96 50.1545 29.64C54.6034 41.52 78.2908 49.56 91.1565 30.6Z" fill="#F8FAFB"/>
<path d="M61.3369 58.92C64.7036 59.16 66.5073 67.32 68.7918 67.32C71.0764 67.32 70.9562 58.92 74.9241 58.92C78.892 58.92 73.2407 46.44 73.2407 46.44L63.6215 48.96L61.3369 58.92Z" fill="#8080EF"/>
<path d="M61.3369 58.92C64.7036 59.16 66.5073 67.32 68.7918 67.32C71.0764 67.32 70.9562 58.92 74.9241 58.92C78.892 58.92 73.2407 46.44 73.2407 46.44L63.6215 48.96L61.3369 58.92Z" fill="#5F5FF4"/>
<path d="M76.0063 23.64C74.4188 22.1225 72.3125 21.2645 70.1145 21.24C67.8863 21.2918 65.7517 22.1439 64.1024 23.64C62.5688 25.2742 61.6729 27.403 61.5774 29.64C61.6159 31.8894 62.52 34.0378 64.1024 35.64C65.7517 37.1361 67.8863 37.9882 70.1145 38.04C72.3125 38.0155 74.4188 37.1575 76.0063 35.64C76.8229 34.8708 77.4694 33.9396 77.9042 32.9064C78.3391 31.8731 78.5527 30.7605 78.5313 29.64C78.4928 27.3906 77.5887 25.2422 76.0063 23.64Z" fill="#8080EF"/>
<path d="M0.375 57.36C0.375 38.4 3.74173 37.08 7.82991 31.68C11.9181 26.28 26.3469 24.6 38.6115 24.84C50.876 25.08 62.5393 32.4 66.2668 40.2C69.9942 48 68.6716 65.52 67.9502 71.64C67.2287 77.76 51.5974 82.56 33.9221 83.28C16.2467 84 0.375 77.16 0.375 57.36Z" fill="#1273EB"/>
<path d="M54.9642 54.36C54.9642 54.36 50.1545 42.6 37.0483 41.52C23.9421 40.44 17.5694 49.56 14.2026 54.24C18.6515 66.12 42.0984 73.32 54.9642 54.36Z" fill="#F8FAFB"/>
<path d="M57.7297 61.2C48.3509 62.28 42.6996 65.64 41.7377 75.24C41.4972 77.76 41.377 80.28 41.377 82.68C55.8058 81.12 67.3489 76.92 67.9501 71.64C68.4424 68.0193 68.7234 64.3732 68.7918 60.72C65.0975 60.5777 61.3977 60.7383 57.7297 61.2Z" fill="#0161CB"/>
<path d="M25.5054 82.92C28.7519 83.28 30.5555 91.32 32.84 91.32C35.1246 91.32 35.0044 83.04 38.9723 83.04C42.9402 83.04 37.2889 70.56 37.2889 70.56L27.6697 72.96L25.5054 82.92Z" fill="#1273EB"/>
<path d="M40.1746 47.76C39.3909 46.9618 38.4555 46.3276 37.4232 45.8947C36.3909 45.4618 35.2824 45.2388 34.1626 45.2388C33.0428 45.2388 31.9343 45.4618 30.902 45.8947C29.8696 46.3276 28.9343 46.9618 28.1506 47.76C27.3727 48.5521 26.7596 49.4902 26.3469 50.52C25.9342 51.5498 25.7298 52.651 25.7458 53.76C25.7033 54.8546 25.8958 55.9455 26.3106 56.9597C26.7254 57.9739 27.3527 58.8877 28.1506 59.64C28.9343 60.4382 29.8696 61.0724 30.902 61.5053C31.9343 61.9382 33.0428 62.1612 34.1626 62.1612C35.2824 62.1612 36.3909 61.9382 37.4232 61.5053C38.4555 61.0724 39.3909 60.4382 40.1746 59.64C41.7164 58.0696 42.5798 55.9585 42.5794 53.76C42.5733 51.5272 41.7131 49.381 40.1746 47.76Z" fill="#1273EB"/>
<path d="M51.9583 86.04C51.9583 67.08 55.325 65.76 59.4132 60.36C63.5013 54.96 77.9302 53.16 90.1947 53.4C102.459 53.64 114.123 60.96 117.85 68.88C121.577 76.8 120.255 94.2 119.533 100.32C118.812 106.44 103.181 111.24 85.5053 111.96C67.83 112.68 51.9583 105.84 51.9583 86.04Z" fill="#FFB229"/>
<path d="M106.788 82.68C106.788 82.68 101.978 70.92 88.8721 69.96C75.7658 69 69.3931 77.88 66.0264 82.68C70.4753 94.56 93.9222 101.76 106.788 82.68Z" fill="#F8FAFB"/>
<path d="M76.9683 111.6C80.335 111.84 82.1386 120 84.4232 120C86.7077 120 86.5875 111.6 90.5554 111.6C94.5234 111.6 88.8721 99.12 88.8721 99.12L79.2528 101.64L76.9683 111.6Z" fill="#FFB229"/>
<path d="M92.3589 76.2C90.9819 74.8694 89.1858 74.0556 87.2758 73.897C85.3657 73.7383 83.4595 74.2446 81.8811 75.3297C80.3027 76.4148 79.1494 78.0119 78.6172 79.8495C78.0851 81.6871 78.2068 83.6519 78.9618 85.4101C79.7168 87.1683 81.0585 88.6113 82.7589 89.4941C84.4593 90.3768 86.4134 90.6447 88.2894 90.2524C90.1653 89.8601 91.8472 88.8316 93.0494 87.3418C94.2515 85.852 94.8998 83.9928 94.8839 82.08C94.8748 80.9818 94.6469 79.8963 94.2134 78.8868C93.7799 77.8773 93.1495 76.964 92.3589 76.2Z" fill="#FFB229"/>
<path d="M52.319 76.56C52.1595 76.56 52.0066 76.4968 51.8939 76.3843C51.7811 76.2717 51.7178 76.1191 51.7178 75.96C52.1987 64.44 60.4953 52.44 82.0184 52.92C89.9542 53.16 103.181 53.76 103.541 56.04C103.588 56.1178 103.611 56.207 103.608 56.2974C103.606 56.3878 103.578 56.4757 103.528 56.551C103.478 56.6262 103.407 56.6858 103.324 56.7227C103.242 56.7597 103.15 56.7726 103.06 56.76C102.935 56.7703 102.81 56.7411 102.702 56.6765C102.594 56.6119 102.509 56.5152 102.459 56.4C102.099 56.28 99.6937 54.6 82.0184 54.24C56.0464 53.52 53.2809 70.68 53.0404 75.96C53.0117 76.1295 52.9232 76.2831 52.7909 76.3932C52.6586 76.5032 52.4912 76.5624 52.319 76.56Z" fill="#FAD97E"/>
<path d="M68.1907 48.36C67.9502 48.36 67.5895 48.12 67.5895 47.88C65.1847 32.64 49.4332 23.52 29.2328 25.68C29.1278 25.7362 29.0104 25.7656 28.8912 25.7655C28.7721 25.7654 28.6547 25.7358 28.5498 25.6794C28.4449 25.623 28.3556 25.5416 28.2899 25.4423C28.2242 25.3431 28.1842 25.2291 28.1734 25.1107C28.1626 24.9922 28.1814 24.8729 28.228 24.7635C28.2747 24.654 28.3478 24.5578 28.4409 24.4835C28.5339 24.4091 28.6439 24.3589 28.7611 24.3374C28.8784 24.3158 28.9991 24.3236 29.1126 24.36C50.0344 22.2 66.3871 31.8 68.7919 47.64C68.8381 47.7178 68.8614 47.807 68.8589 47.8974C68.8565 47.9878 68.8286 48.0757 68.7783 48.151C68.7281 48.2262 68.6575 48.2858 68.5748 48.3227C68.4922 48.3597 68.4007 48.3726 68.311 48.36H68.1907Z" fill="#2C8AF2"/>
<path d="M104.744 32.4C104.552 32.4 104.369 32.3241 104.234 32.1891C104.098 32.0541 104.022 31.871 104.022 31.68C104.383 21.36 99.3329 3.48 78.5313 1.68C57.7297 -0.119999 43.4211 4.56 39.4531 14.64C39.4274 14.723 39.3839 14.7995 39.3256 14.8641C39.2673 14.9287 39.1957 14.9798 39.1156 15.0141C39.0356 15.0483 38.949 15.0648 38.862 15.0624C38.7749 15.0599 38.6895 15.0387 38.6115 15C38.371 14.88 38.1305 14.52 38.2507 14.28C42.4591 3.36 56.7678 -1.44 78.5313 0.360001C100.295 2.16 105.585 21 105.345 31.68C105.347 31.8519 105.288 32.0189 105.178 32.151C105.067 32.283 104.914 32.3714 104.744 32.4Z" fill="#5F5FF4"/>
<path d="M66.0262 83.28H65.6655C65.6024 83.2327 65.5492 83.1735 65.5089 83.1057C65.4687 83.0379 65.4423 82.9628 65.4311 82.8848C65.4199 82.8068 65.4243 82.7274 65.4439 82.6511C65.4635 82.5748 65.4979 82.503 65.5453 82.44C69.0323 77.52 75.405 68.4 88.8719 69.36C102.339 70.32 107.269 82.32 107.389 82.44C107.453 82.5991 107.451 82.777 107.383 82.9346C107.315 83.0921 107.188 83.2163 107.028 83.28C106.869 83.3437 106.691 83.3415 106.533 83.274C106.375 83.2065 106.25 83.0791 106.187 82.92C106.187 82.8 101.377 71.52 88.7517 70.56C76.1264 69.6 69.8739 78.36 66.5072 83.04C66.387 83.28 66.2667 83.28 66.0262 83.28Z" fill="#FAD97E"/>
<path d="M14.4432 54.72H14.2027C14.1114 54.7063 14.0261 54.6667 13.9567 54.6059C13.8874 54.5451 13.8371 54.4657 13.8117 54.3772C13.7864 54.2886 13.7871 54.1947 13.8138 54.1065C13.8404 54.0184 13.892 53.9397 13.9622 53.88C16.9682 48.24 23.9422 41.4 33.2007 40.8C38.852 40.32 47.3891 42.24 55.6857 53.64C55.7542 53.7047 55.8066 53.7847 55.8385 53.8733C55.8704 53.962 55.8809 54.0569 55.8692 54.1504C55.8575 54.2439 55.8239 54.3333 55.7711 54.4114C55.7183 54.4895 55.6479 54.5541 55.5654 54.6C55.4305 54.6715 55.2762 54.6985 55.125 54.6769C54.9737 54.6553 54.8332 54.5864 54.7237 54.48C48.351 45.84 41.0163 41.52 33.3209 42C25.6255 42.48 17.9301 48.96 15.0444 54.36C14.9945 54.4752 14.9096 54.5719 14.8018 54.6365C14.694 54.7011 14.5685 54.7303 14.4432 54.72Z" fill="#2C8AF2"/>
<path d="M91.1567 30.6L90.5555 30.36C86.4673 23.52 80.9362 19.32 74.6837 18.12C71.8952 17.5613 69.0202 17.5931 66.2447 18.2132C63.4693 18.8334 60.8551 20.028 58.5715 21.72C58.4249 21.8228 58.2451 21.8675 58.0673 21.8453C57.8895 21.8231 57.7263 21.7357 57.6096 21.6C57.5427 21.4437 57.5185 21.2724 57.5397 21.1038C57.5608 20.9351 57.6264 20.7751 57.7298 20.64C62.7272 17.1417 68.9094 15.761 74.9242 16.8C79.4933 17.76 86.2268 20.64 91.6376 29.64C91.7406 29.7863 91.7854 29.9657 91.7631 30.1432C91.7409 30.3206 91.6533 30.4835 91.5174 30.6H91.1567Z" fill="#B1B1FA"/>
</g>
<defs>
<clipPath id="clip0">
<rect width="120" height="120" fill="white" transform="translate(0.375)"/>
</clipPath>
</defs>
</svg>
